<?xml version="1.0" encoding="utf-8"?>
<!-- Generator: Adobe Illustrator 18.0.0, SVG Export Plug-In . SVG Version: 6.00 Build 0)  -->
<!DOCTYPE svg PUBLIC "-//W3C//DTD SVG 1.1//EN" "http://www.w3.org/Graphics/SVG/1.1/DTD/svg11.dtd">
<svg version="1.1" id="图层_1" xmlns="http://www.w3.org/2000/svg" xmlns:xlink="http://www.w3.org/1999/xlink" x="0px" y="0px"
	 width="155px" height="32px" viewBox="0 0 155 32" enable-background="new 0 0 155 32" xml:space="preserve">
<g>
	<path fill="#E9573F" d="M146.1915131,23.6905212h-0.999588v5.6477356c0,0.5497742,0,0.8996277,0.0499725,1.1495361h-0.0499725
		c-0.0499878-0.0499878-0.1499481-0.2499084-0.299881-0.5497742l-3.9983978-6.2474976h-1.2994843v8.1467285h1.0495758v-5.7477112
		c0-0.5497742,0-0.8996277-0.0499725-1.1495361h0.0499725c0.0499878,0.1499329,0.1499481,0.3498535,0.2499084,0.599762
		l4.0983582,6.2974854h1.1995087V23.6905212L146.1915131,23.6905212z"/>
	<path fill="#E9573F" d="M154.2882843,23.990387c-0.5497894-0.2498779-1.2994843-0.3998413-2.1991272-0.3998413
		c-1.2494965,0-2.2990875,0.3998413-3.0487823,1.1995239c-0.7996674,0.7997131-1.1995087,1.8492737-1.1995087,3.0987854
		s0.3498535,2.1990967,1.0995483,2.948822c0.0999603,0.1499329,0.2499084,0.2498779,0.3998413,0.3498535
		c0.6497498,0.5497742,1.4494171,0.7996826,2.4490204,0.7996826c0.999588,0,1.8992462-0.2499084,2.7488861-0.6997375v-3.7485046
		h-2.8488464v0.949646h1.7992706v2.1990967c-0.4498138,0.2499084-0.9496002,0.349884-1.59935,0.349884
		c-0.8996429,0-1.5993652-0.2998962-2.1491547-0.8496704c-0.5497742-0.5498047-0.7996674-1.3494873-0.7996674-2.3990479
		c0-0.9496155,0.299881-1.7492981,0.8496552-2.3490601c0.599762-0.6497498,1.3494568-0.9496155,2.1991272-0.9496155
		c0.8996277,0,1.6493378,0.1999207,2.2990875,0.599762V23.990387L154.2882843,23.990387z"/>
	<path fill="#E9573F" d="M134.2962646,1.2495117L131.9472198,0c-2.249115,2.6489258-4.4981995,4.6481628-6.8472748,6.0475769
		l0.9496155,2.0991516c3.6985321-0.3498535,8.0467834-0.5497742,13.0947723-0.599762l1.3994293,1.549408l1.8992462-1.5993652
		c-1.5493774-1.6993103-3.1987152-3.3986206-4.9480133-5.1479187l-1.8492737,1.2495117l1.7992859,1.9492188l-8.4466248,0.2998657
		C130.847641,4.3482666,132.5969543,2.7989197,134.2962646,1.2495117L134.2962646,1.2495117z"/>
	<polygon fill="#E9573F" points="124.1003571,11.9952087 124.1003571,9.6961365 116.903244,9.6961365 116.903244,3.1987305 
		123.40065,3.1987305 123.40065,0.8996582 107.8568573,0.8996582 107.8568573,3.1987305 114.254303,3.1987305 114.254303,9.6961365 
		107.1071777,9.6961365 107.1071777,11.9952087 114.254303,11.9952087 114.254303,17.4430237 116.903244,17.4430237 
		116.903244,11.9952087 124.1003571,11.9952087 	"/>
	<path fill="#E9573F" d="M124.9999847,24.2902832c-0.4498138-0.3998413-1.0495758-0.599762-1.8492584-0.599762h-2.4989929v8.1467285
		h1.0495758v-3.3986511h0.7497101c0.299881,0,0.599762,0.0999756,0.8496552,0.2499084
		c0.1999207,0.1499329,0.4498138,0.4498291,0.6997223,0.8996582l1.3494568,2.2490845h1.2494965l-1.4994049-2.3990479
		c-0.2498932-0.4498291-0.4998016-0.7496948-0.6497345-0.8996277c-0.1499481-0.1499634-0.3498688-0.2998962-0.5997772-0.4498291
		v-0.0499878c1.1995239-0.2998962,1.7992859-0.9996033,1.7992859-2.1491394c0-0.699707-0.1999207-1.2495117-0.6497498-1.5993347
		H124.9999847z M121.7013245,24.6401367h1.2494965c0.5497894,0,0.9496155,0.0999756,1.2494965,0.2998962
		c0.2499084,0.2499084,0.3498688,0.599762,0.3498688,0.9996033c0,0.4498291-0.1499481,0.8496704-0.4498291,1.0995789
		c-0.299881,0.2998657-0.6997223,0.4498291-1.1495361,0.4498291h-1.2494965v-2.848877V24.6401367z"/>
	<path fill="#E9573F" d="M128.94841,23.6905212h-1.299469v8.1467285h1.0495758v-5.7477112
		c0-0.5497742,0-0.8996277-0.0499878-1.1495361h0.0499878c0.0499725,0.1499329,0.1499329,0.3498535,0.2498932,0.599762
		l4.0983582,6.2974854h1.2494965v-8.1467285h-0.999588v5.6477356c0,0.5497742,0,0.8996277,0.0499725,1.1495361h-0.0499725
		c-0.0499878-0.0499878-0.1499481-0.2499084-0.3498688-0.5497742L128.94841,23.6905212L128.94841,23.6905212z"/>
	<path fill="#E9573F" d="M129.1983185,17.492981v-1.0495911h8.6965179v1.0495911h2.3990326V9.2962952h-13.5445709v8.1966858
		h2.4490051H129.1983185z M129.1983185,11.4454041h8.6965179v2.7988892h-8.6965179V11.4454041L129.1983185,11.4454041z"/>
	<polygon fill="#E9573F" points="135.6457367,24.5901489 136.4454193,24.5901489 136.4454193,30.9376221 135.6457367,30.9376221 
		135.6457367,31.8372803 138.2446899,31.8372803 138.2446899,30.9376221 137.4949951,30.9376221 137.4949951,24.5901489 
		138.2446899,24.5901489 138.2446899,23.6905212 135.6457367,23.6905212 135.6457367,24.5901489 	"/>
	<path fill="#E9573F" d="M117.7029114,7.8968201l1.7992859,1.4994202c1.3494568-1.4494324,2.648941-2.8988342,3.8984375-4.3982544
		l-2.0491943-1.3994446c-1.0995483,1.4494324-2.2990875,2.8988342-3.6485443,4.2982788H117.7029114z"/>
	<path fill="#E9573F" d="M111.3554535,9.3462524l2.0991669-1.4494324c-1.1995239-1.5493774-2.3490601-2.9987793-3.4486237-4.2982788
		l-1.8492584,1.1995239C109.1063385,6.0475769,110.1559296,7.5469666,111.3554535,9.3462524L111.3554535,9.3462524z"/>
	<path fill="#E9573F" d="M105.1079559,3.0487976h1.0495758V1.4494324h-4.4981995
		c0.1499329-0.3498535,0.299881-0.7496948,0.4498138-1.1495361l-1.9492188-0.0999756
		c-0.4498291,1.3494873-1.0995483,2.5989685-1.9992065,3.6985168c0.2499084,0.349884,0.6497498,0.8996582,1.1495361,1.5993652
		c0.2499084-0.3498535,0.4998169-0.6497498,0.7497101-0.9996033c0.2499084,0.5497742,0.5497894,0.9496155,0.8996429,1.299469
		c-0.6497498,0.4498291-1.4494324,0.7497253-2.3990479,0.9996338c0.4498291,0.5497742,0.7996826,1.0995483,1.1495361,1.6493225
		c0.9996033-0.3998413,1.8492737-0.8496704,2.5989685-1.3994751c0.7996674,0.4998169,1.7492981,0.949646,2.8988342,1.2994995
		c0.2498932-0.4498291,0.599762-0.9996033,1.0495758-1.6493225c-0.9996033-0.1999207-1.8492584-0.4998169-2.5989532-0.8996582
		c0.6497345-0.7496948,1.0995483-1.6992798,1.4494171-2.7488708H105.1079559z M103.3586578,3.0487976
		c-0.2498932,0.6497192-0.599762,1.2495117-1.0995483,1.7492676c-0.4998016-0.4498291-0.8996277-1.0495911-1.2494965-1.7492676
		H103.3586578L103.3586578,3.0487976z"/>
	<polygon fill="#E9573F" points="104.0583801,11.7453003 104.0583801,10.7956543 91.1135559,10.7956543 91.1135559,11.7453003 
		104.0583801,11.7453003 	"/>
	<path fill="#E9573F" d="M106.2075195,10.0959778V8.6965332h-7.0471649
		c-0.0499878-0.4498291-0.1499481-0.7997131-0.2499084-1.1495667l-1.2494965,0.0999756
		c0.2499084-0.349884,0.3498688-0.7497253,0.3498688-1.1995544c0.0499725-1.0995483,0.0999603-2.1990967,0.0999603-3.2986755
		h-5.6977234c0.0499878-0.0999451,0.0999603-0.1999207,0.1499481-0.3498535h0.6997223V2.249054h1.5493774v0.5997925h1.8992462
		V2.249054h2.2990875V0.9995422h-2.2990875V0.1998596h-1.8992462v0.7996826h-1.5493774V0.1998596h-1.8992462v0.7996826h-2.1991272
		V2.249054h2.1991272v0.4498291h-0.599762c-0.3998413,0.9996033-0.999588,1.899231-1.7492981,2.6489563
		c0.3498535,0.3998413,0.6497498,0.8496704,0.999588,1.299469c0.1999207-0.2498779,0.3998413-0.4997864,0.599762-0.7996826
		v2.1991272h1.4994049V7.7468567h2.2990875c0.0499878,0.1499329,0.0499878,0.2998962,0.0999603,0.4998169h1.4494171
		c0.3998413,0,0.7497101-0.0499878,1.0495758-0.1499634c0.0499878,0.1999207,0.0999603,0.3998718,0.1499481,0.5997925h-7.8968506
		v1.3994446h16.943222L106.2075195,10.0959778z M91.2634888,5.0479736c0.1499481-0.1999207,0.2499084-0.3998413,0.3998413-0.5497742
		h4.5981598c0,0.7496948,0,1.3494568-0.0499725,1.8492432c-0.0499878,0.3498535-0.2499084,0.4997864-0.6497498,0.4997864
		c-0.0999603,0-0.1999207,0-0.299881,0V5.0479736H91.2634888L91.2634888,5.0479736z M92.1131439,6.0475769h1.6993256v0.6497498
		h-1.6993256V6.0475769L92.1131439,6.0475769z"/>
	<path fill="#E9573F" d="M101.7592926,17.1931152v0.4997864h2.2990875v-3.6485291H91.1135559v3.6485291h2.2490997v-0.4997864
		h8.3966522H101.7592926z M101.7592926,15.0439758v0.7996826h-8.3966522v-0.7996826H101.7592926L101.7592926,15.0439758z"/>
	<path fill="#E9573F" d="M102.3590546,23.6905212h-1.1495361l2.3490601,8.1467285h1.1995087l1.6493378-5.897644
		c0.0499878-0.2499084,0.0999603-0.4998169,0.1499481-0.8496704c0.0499725,0.3498535,0.0999603,0.599762,0.1499329,0.8496704
		l1.649353,5.897644h1.1995087l2.2990875-8.1467285h-1.1495361l-1.5493774,6.1975098
		c-0.0999603,0.2998962-0.1499481,0.5497742-0.1499481,0.7996826c-0.0499725-0.3498535-0.1499329-0.599762-0.1999207-0.7996826
		l-1.6493378-6.1975098h-1.0495758l-1.7492981,6.147522c-0.0999603,0.349884-0.1499481,0.6497498-0.1999207,0.8496704
		c-0.0499878-0.2499084-0.0999603-0.5497742-0.1499481-0.8496704L102.3590546,23.6905212L102.3590546,23.6905212z"/>
	<polygon fill="#E9573F" points="104.0583801,13.3446655 104.0583801,12.4450378 91.1135559,12.4450378 91.1135559,13.3446655 
		104.0583801,13.3446655 	"/>
	<path fill="#E9573F" d="M116.3534546,23.6905212h-1.1495361l-3.1487427,8.1467285h1.1995239l0.7497101-2.1991272h3.4486237
		l0.8496399,2.1991272h1.1495361L116.3534546,23.6905212L116.3534546,23.6905212z M115.7037201,24.7401123h0.0499878
		c0.0499725,0.2998657,0.0499725,0.4997864,0.0999603,0.599762l1.299469,3.3486633h-2.7488861l1.1995087-3.3486633
		C115.6537476,25.1899414,115.6537476,24.9900208,115.7037201,24.7401123L115.7037201,24.7401123z"/>
	<polygon fill="#E9573F" points="88.1147461,3.2986755 88.1147461,1.0995789 78.6185455,1.0995789 78.6185455,3.2986755 
		82.0171967,3.2986755 81.7672882,4.7980957 79.0184021,4.7980957 79.0184021,13.1947327 81.2675018,13.1947327 
		81.2675018,6.9472351 85.5157928,6.9472351 85.5157928,13.1947327 87.8148804,13.1947327 87.8148804,4.7980957 
		84.0663757,4.7980957 84.3662567,3.2986755 88.1147614,3.2986755 	"/>
	<path fill="#E9573F" d="M84.5162048,7.8468628h-2.1991272V8.396637c0,1.9492188-0.1999207,3.3986511-0.6497498,4.2982788
		c-0.5497894,1.0495911-1.8492584,1.9992065-3.8984222,2.948822c0.4498138,0.6497498,0.8996277,1.2994995,1.3994293,2.0491638
		c1.9492188-1.0495911,3.2986908-2.0491638,4.0483704-3.0487671c1.3494568,0.9996033,2.5989685,1.999176,3.6485443,3.0487671
		l1.5993652-1.6992798c-1.3494568-1.0495911-2.7988739-2.1491394-4.3482513-3.2487183
		c0.2498932-1.0995789,0.3998413-2.5489807,0.3998413-4.3482666V7.8468628L84.5162048,7.8468628z"/>
	<path fill="#E9573F" d="M88.4646149,23.6905212h-1.1495361l-3.0987549,8.1467285H85.36586l0.7996674-2.1991272h3.3986511
		l0.8496399,2.1991272h1.1495361l-3.0987549-8.1467285H88.4646149z M89.2642822,28.6885376h-2.7488861l1.1995087-3.3486633
		c0.0499878-0.1499329,0.0999603-0.3498535,0.1499481-0.599762h0.0499725
		c0.0499878,0.2998657,0.0499878,0.4997864,0.0999603,0.599762L89.2642822,28.6885376L89.2642822,28.6885376z"/>
	<polygon fill="#E9573F" points="83.416626,24.6401367 83.416626,23.6905212 79.2183228,23.6905212 79.2183228,31.8372498 
		83.5665741,31.8372498 83.5665741,30.8876038 80.2678986,30.8876038 80.2678986,28.1387024 83.1667328,28.1387024 
		83.1667328,27.2390747 80.2678986,27.2390747 80.2678986,24.6401062 83.416626,24.6401062 	"/>
	<polygon fill="#E9573F" points="91.9132233,23.6905212 91.9132233,24.6401367 94.2622833,24.6401367 94.2622833,31.8372803 
		95.3118591,31.8372803 95.3118591,24.6401367 97.6609039,24.6401367 97.6609039,23.6905212 91.913208,23.6905212 	"/>
	<path fill="#E9573F" d="M78.1687469,3.3986511V1.0995789h-6.9472351v2.0991516h4.5981598l-1.4494171,2.1491394
		c-0.6497498-0.5498047-1.2494965-1.0495911-1.8992462-1.5993652l-1.1995087,1.5993652
		c0.6497498,0.4497986,1.3494568,0.8996277,2.0991669,1.4494324h-2.3990326v2.1491089h2.1491394v5.2978821
		c0,0.6497498-0.299881,0.9996033-0.9496155,0.9996033c-0.3498688,0-0.6997223,0-1.0995483,0
		c0.1499329,0.7996826,0.3498535,1.549408,0.4998016,2.2990723c0.8996277,0,1.5493774,0,1.8992462-0.0499878
		c1.299469-0.0999451,1.9492188-0.7996826,1.9492188-2.1491089V8.9464111h1.1495361l-0.299881,3.6985474h1.59935
		l0.4998169-5.8476563h-2.5489807l2.3490601-3.3986511H78.1687469z"/>
	<path fill="#E9573F" d="M63.0747833,0.2998962c0,1.0995483,0,2.0491638-0.0499725,2.8988342h-2.6989136v2.3490601h2.6989136
		c-0.0999603,2.7988586-0.3998413,4.8980103-0.9496155,6.3474426c-0.5497894,1.4494324-1.3494568,2.6489563-2.3990479,3.5985718
		v-4.2982788c0.4998016,0.1999207,1.0495758,0.3998413,1.59935,0.599762
		c0.3998566-1.5493774,0.7497101-3.1487427,0.9996033-4.848053l-1.7992859-0.3498535
		c-0.2498932,1.299469-0.4997864,2.5489502-0.7996674,3.7485046V0.949646h-5.5477753v5.9975891
		c0,2.6489258-0.0999603,4.4981995-0.2499084,5.6477356c-0.1499329,1.0995789-0.3998413,2.0991516-0.7996826,3.0487671
		c0.599762,0.599762,1.1495514,1.2495117,1.59935,1.9992065c0.8496704-1.3494873,1.349472-3.2487183,1.3994446-5.797699h1.5493927
		v2.1991272c0,0.6497498-0.2498932,0.9996033-0.7996826,0.9996033c-0.3498688,0-0.6997223-0.0499878-1.0495911-0.0999451
		c0.299881,0.8996277,0.4998016,1.6992798,0.5497894,2.3990173c1.349472-0.0499878,2.1991119-0.1499329,2.5489655-0.3998413
		c0.3498688-0.1999207,0.5497894-0.5497742,0.6997375-1.0995789c0.6497345,0.7497253,1.1995087,1.2994995,1.59935,1.7492981
		c1.1995239-1.1495667,2.1491547-2.5989685,2.8488617-4.3982544c0.6997223-1.7492981,1.0995636-4.2982788,1.1995239-7.6469421
		h1.4993896c-0.0499725,5.2978516-0.1499329,8.1966858-0.299881,8.6965027
		c-0.1499329,0.4498291-0.599762,0.6997375-1.3994293,0.6997375c-0.3998566,0-0.9496155-0.0499878-1.6993256-0.0999756
		c0.299881,0.8496704,0.4998016,1.5993652,0.599762,2.3490601c1.7492981,0,2.8988342-0.0999756,3.3486633-0.2499084
		s0.8496552-0.4997864,1.0995636-0.9996033c0.2498932-0.4498291,0.3998413-1.2495117,0.3998413-2.2990723l0.0499725-3.3486633
		c0.3998413,0.4498291,0.8496552,0.9496155,1.2994843,1.4994202l0.5497742-2.7988892
		c-0.4498138-0.3498535-1.0495605-0.8996582-1.7992706-1.5493774l0.0999603-4.2483215h-3.7485046l0.0499725-2.8988342h-2.1991272
		L63.0747833,0.2998962z M57.6269379,5.4478149H56.127533V3.1987305h1.4994049V5.4478149L57.6269379,5.4478149z
		 M57.6269379,9.7460938H56.127533c0-0.6497192,0-1.3994446,0-2.1990967h1.4994049V9.7460938L57.6269379,9.7460938z"/>
	<polygon fill="#E9573F" points="62.6249695,24.6401367 62.6249695,23.6905212 56.8272858,23.6905212 56.8272858,24.6401367 
		59.1763458,24.6401367 59.1763458,31.8372803 60.2259216,31.8372803 60.2259216,24.6401367 62.6249695,24.6401367 	"/>
	<polygon fill="#E9573F" points="64.9240417,23.6905212 63.8744659,23.6905212 63.8744659,31.8372498 64.9240417,31.8372498 
		64.9240417,28.1387024 69.0223846,28.1387024 69.0223846,31.8372498 70.0719604,31.8372498 70.0719604,23.6905212 
		69.0223846,23.6905212 69.0223846,27.2391052 64.9240417,27.2391052 64.9240417,23.6905212 	"/>
	<path fill="#E9573F" d="M74.620163,23.6905212h-2.4490204v8.1467285h1.0495758v-3.3986511h0.7497101
		c0.299881,0,0.599762,0.0999756,0.8496552,0.2499084c0.1999207,0.1499329,0.4498138,0.4498291,0.6997223,0.8996582
		l1.3494568,2.2490845h1.2494965l-1.5493774-2.3990479c-0.2499084-0.4498291-0.4498291-0.7496948-0.599762-0.8996277
		c-0.1499481-0.1499634-0.3498688-0.2998962-0.599762-0.4498291v-0.0499878
		c1.1995087-0.2998962,1.7992706-0.9996033,1.7992706-2.1491394c0-0.699707-0.1999207-1.2495117-0.6497345-1.5993347
		c-0.4498291-0.3998413-1.0495758-0.599762-1.8992462-0.599762H74.620163z M73.2207184,24.6401367h1.2494965
		c0.5497894,0,0.9496155,0.0999756,1.2494965,0.2998962c0.2499084,0.2499084,0.3498688,0.599762,0.3498688,0.9996033
		c0,0.4498291-0.1499481,0.8496704-0.3998413,1.0995789c-0.3498688,0.2998657-0.7497101,0.4498291-1.1995239,0.4498291h-1.2494965
		v-2.848877V24.6401367z"/>
	<path fill="#E9573F" d="M52.2790985,2.5489807h-1.4994202l0.9496307-0.5497742
		C51.1795197,1.2494812,50.6297302,0.5997314,50.0799866,0l-1.6493225,0.949646
		c0.3498535,0.4497986,0.7996826,0.9996033,1.2495117,1.5993347h-1.5493774V0.2998962h-2.2490845l0.0499878,2.2490845H36.385498
		v6.5973511c0,2.948822-0.4997864,5.2478943-1.4494324,6.7973022c0.6497498,0.4498291,1.2994995,1.0495911,1.9492188,1.7492676
		c1.1495361-2.2490845,1.7492981-5.0979309,1.7492981-8.5465698v-4.598175h7.3470459
		c0.0999756,3.1487427,0.2998962,5.6477356,0.6497498,7.4970093c-0.3998413,0.5498047-0.7996826,1.0495911-1.2495117,1.5493774
		l-0.9996033-0.5497742c0.5497742-0.7996826,0.9996033-1.6993103,1.3494873-2.6989136V8.5965576h-2.948822l0.3998413-0.9496155
		l-2.1991272-0.1999207c-0.0999451,0.3498535-0.1999207,0.7496948-0.3498535,1.1495361h-1.6993103v1.7992554h0.8996582
		c-0.2998962,0.6497498-0.6497498,1.2994995-1.0995789,1.9492188c0.7496948,0.3998413,1.5493774,0.8496704,2.2990723,1.2994995
		c-0.7496948,0.5497742-1.6493225,0.9996033-2.6489258,1.3494568c0.3498535,0.4998169,0.7496948,1.0995789,1.1495361,1.7492981
		c1.2994995-0.4998169,2.3990479-1.1995239,3.3486633-2.0491638l0.8496704,0.5497742
		c-0.2499084,0.1999207-0.4997864,0.3998413-0.7496948,0.5498047c0.6497498,0.5497742,1.2495117,1.0995483,1.7992554,1.6992798
		c0.8996582-0.7996826,1.7492981-1.6992798,2.4989929-2.6489258c0.6997375,1.7492981,1.6993103,2.6489258,2.948822,2.6989136
		c0.8496704-0.0999451,1.4494324-0.599762,1.7992706-1.4994202c0.3498688-0.8996277,0.5497894-2.0491638,0.6997223-3.3986206
		c-0.6497498-0.2998962-1.2495117-0.6497498-1.899231-1.0495911c-0.0499725,0.6497498-0.0999603,1.299469-0.1999207,1.899231
		c-0.0499725,0.5497742-0.1499329,0.8996277-0.2498932,1.0495911c-0.0499878,0.1499329-0.1499481,0.1999207-0.2499084,0.2498779
		c-0.3498688,0.0999756-0.6997223-0.6497498-1.1495514-2.1990967c1.1995392-1.8492432,2.2490997-3.9484253,3.1487427-6.1975098
		L50.0300293,5.54776c-0.4498291,1.299469-0.9996033,2.4989929-1.5993347,3.5985413
		c-0.1499634-1.3494568-0.1999207-2.8488464-0.2499084-4.598175h4.0983582v-1.999176L52.2790985,2.5489807z M43.5825806,10.3958435
		c-0.2499084,0.6497498-0.599762,1.2495117-0.9996033,1.7992859l-1.1995544-0.599762
		c0.1999512-0.3998413,0.3998718-0.7997131,0.5997925-1.1995544H43.58255L43.5825806,10.3958435z"/>
	<polygon fill="#E9573F" points="45.6817322,7.2471008 45.6817322,5.4478455 38.9844055,5.4478455 38.9844055,7.2471008 
		45.6817322,7.2471008 	"/>
	<path fill="#E9573F" d="M43.0827637,23.6905212h-2.4490051v8.1467285h1.0495911v-3.3986511h0.7496948
		c0.2998962,0,0.5498047,0.0999756,0.7997131,0.2499084c0.2498779,0.1499329,0.4997864,0.4498291,0.7496948,0.8996582
		l1.2994995,2.2490845h1.2994995l-1.5493774-2.3990479c-0.2499084-0.4498291-0.4498291-0.7496948-0.599762-0.8996277
		c-0.1999207-0.1499634-0.3998413-0.2998962-0.599762-0.4498291v-0.0499878
		c1.1995239-0.2998962,1.7992554-0.9996033,1.7992554-2.1491394c0-0.699707-0.1999207-1.2495117-0.6497498-1.5993347
		c-0.4498291-0.3998413-1.0495911-0.599762-1.899231-0.599762H43.0827637z M41.6833191,24.6401367h1.2495117
		c0.5497742,0,0.9496155,0.0999756,1.1995239,0.2998962c0.2499084,0.2499084,0.3998413,0.599762,0.3998413,0.9996033
		c0,0.4498291-0.1499329,0.8496704-0.4497986,1.0995789c-0.2998962,0.2998657-0.6997375,0.4498291-1.1495667,0.4498291h-1.2495117
		v-2.848877V24.6401367z"/>
	<path fill="#E9573F" d="M48.7304993,23.6905212h-1.0495911v8.1467285h1.0495911v-3.9984131
		c0.0499878,0.0499878,0.1499634,0.1499329,0.2499084,0.2998657l3.0487823,3.6985474h1.3994598l-3.6485596-4.2483215
		l3.3986511-3.8984375h-1.2495117l-2.948822,3.548584c-0.0999451,0.0999451-0.1999207,0.1999207-0.2499084,0.2998657v-3.8484497
		V23.6905212z"/>
	<path fill="#E9573F" d="M33.8364868,4.0484009V1.9492493h-5.0479736c0.2998657-0.3998413,0.599762-0.8496704,0.8496704-1.3494873
		l-2.3490601-0.3998413c-0.8996582,1.6993103-2.0491638,3.2986755-3.3986511,4.848053
		c0.4498291,0.6497498,0.8496704,1.2495117,1.0995789,1.7992554c0.2499084-0.1999207,0.4998169-0.4497986,0.7996826-0.7996826
		c0.3498535,0.4498291,0.7496948,0.8996582,1.0995789,1.2994995c-1.0495911,0.3998413-2.3990479,0.7496948-3.9484253,1.0995789
		c0.2499084,0.4498291,0.5497742,1.1495361,0.8496704,2.0991516c1.9491882-0.4998169,3.6985168-1.0995789,5.1479187-1.7992859
		c1.3494873,0.6997375,3.0987549,1.2994995,5.1479187,1.7492981C34.2363586,9.8460388,34.3862915,9.096344,34.6362,8.2467041
		c-1.2994995-0.2499084-2.4989929-0.5498047-3.548584-0.8996582c1.1495361-0.9496155,2.0991516-2.0491638,2.7489014-3.2986755
		L33.8364868,4.0484009z M27.1391602,4.49823c0.1499329-0.1999207,0.2998657-0.349884,0.3998413-0.4998169h3.548584
		c-0.4498291,0.8996582-1.1995239,1.6493225-2.1491394,2.2990723c-0.6997375-0.4998169-1.2994995-1.0995789-1.7992554-1.7992554
		H27.1391602z"/>
	<path fill="#E9573F" d="M22.2411194,2.9988098c-0.4498291,1.0495911-0.9496155,1.9491882-1.3994446,2.7489014
		c-0.1999207,0-0.5498047,0-1.0495911,0c0.8496704-1.4994202,1.6993103-3.0487976,2.5489807-4.6981201L20.191925,0.1999207
		c-1.1995239,2.848877-2.1991272,4.7480774-2.9988098,5.7477112l0.599762,1.999176
		c0.5997925-0.0499878,1.2495117-0.1499329,1.899231-0.1999207c-0.8496704,1.4494324-1.5493469,2.4490051-2.0991516,3.0487671
		l0.6997375,1.9492188c0.8996582-0.1999207,2.5489807-0.4498291,4.9979858-0.7996826
		c0-0.6497498,0.0499878-1.3994446,0.0999756-2.1491394c-0.949646,0.1499634-1.899231,0.2499084-2.7489014,0.349884
		c1.2994995-2.1491394,2.5489807-4.1983337,3.6985168-6.1975403l-2.0991516-0.9496155V2.9988098z"/>
	<path fill="#E9573F" d="M25.9396362,23.6905212h-1.0495911l-1.7492676,6.147522
		c-0.0999756,0.349884-0.1499329,0.6497498-0.1999207,0.8496704c-0.0499878-0.2499084-0.0999756-0.5497742-0.1499634-0.8496704
		l-1.5993347-6.147522h-1.1995239l2.3990173,8.1467285h1.1995544l1.5993347-5.897644
		c0.0999756-0.2499084,0.1499329-0.4998169,0.1999207-0.8496704c0.0499878,0.3498535,0.0999756,0.599762,0.1499329,0.8496704
		l1.5993652,5.897644h1.2495117l2.2990723-8.1467285h-1.1495667l-1.5993347,6.1975098
		c-0.0999756,0.2998962-0.1499329,0.5497742-0.1499329,0.7996826c-0.0499878-0.3498535-0.0999756-0.599762-0.1499634-0.7996826
		L25.9396362,23.6905212L25.9396362,23.6905212z"/>
	<path fill="#E9573F" d="M23.740509,15.59375c-0.0499878-0.599762,0-1.3994446,0.0499878-2.3990173
		c-2.948822,0.4498291-5.1479492,0.7496948-6.5973816,0.8996582l0.3998413,2.4490051
		C19.0423889,16.2934875,21.0915833,15.943634,23.740509,15.59375L23.740509,15.59375z"/>
	<path fill="#E9573F" d="M24.4402466,17.5929565h2.2490845v-0.8496704h4.4981995v0.8496704h2.2990723v-7.097168h-9.0463562
		V17.5929565L24.4402466,17.5929565z M26.6893311,14.5941467v-1.899231h4.4981995v1.899231H26.6893311L26.6893311,14.5941467z"/>
	<path fill="#E9573F" d="M37.9848328,24.6901245c-0.6497498-0.7496948-1.549408-1.0995789-2.6989136-1.0995789
		c-1.1995544,0-2.1491394,0.3998413-2.8988342,1.1495667c-0.6997375,0.7496948-1.0495911,1.7992554-1.0495911,3.0987549
		c0,1.2495117,0.3498535,2.2490845,1.0495911,2.9988098c0.0999451,0.1499329,0.2498779,0.2498779,0.3998413,0.3498535
		c0.6497192,0.5497742,1.3994446,0.7996826,2.3490295,0.7996826c0.9996338,0,1.8492737-0.2499084,2.4989929-0.7996826
		c0.1499634-0.0999756,0.2499084-0.1999207,0.349884-0.3498535c0.699707-0.7997131,1.0495911-1.8492737,1.0495911-3.1487427
		C39.0344238,26.4394226,38.6845398,25.4398193,37.9848328,24.6901245L37.9848328,24.6901245z M37.1851501,25.3898621
		c0.4997864,0.5497742,0.7496948,1.3494568,0.7496948,2.3990173c0,1.0495911-0.2499084,1.8492432-0.7496948,2.3990479
		c-0.4498291,0.5497742-1.1495667,0.8496704-2.0491943,0.8496704c-0.7996826,0-1.4494324-0.2998962-1.999176-0.8996582
		c-0.4498291-0.5497742-0.6997375-1.3494873-0.6997375-2.3490601c0-0.9496155,0.2499084-1.7492981,0.7996826-2.3490601
		c0.4498291-0.599762,1.0995789-0.8996277,1.9492188-0.8996277C36.035614,24.5401917,36.735321,24.8400574,37.1851501,25.3898621
		L37.1851501,25.3898621z"/>
	<path fill="#E9573F" d="M13.5446167,4.4482422l-1.899231-0.8496704c-0.3998413,1.1495361-0.8496704,2.2490845-1.2994995,3.2986755
		L8.9464417,3.7984924l-0.949646,0.4498291L6.8472595,3.6985168C6.3974304,4.8480835,5.9476013,5.897644,5.4977722,6.9472351
		L3.9983826,3.7984924l-1.649353,0.8496704v-1.549408h11.1955261v1.3494873v9.5461731
		c0,0.7497253-0.349884,1.0995789-1.0995789,1.0995789c-0.8496704,0-1.6993103-0.0499878-2.5489807-0.0999756
		c0.1999207,0.6997375,0.3998413,1.4994202,0.5498047,2.4490356c1.6993103,0,2.8488464-0.0499878,3.4985962-0.0999756
		c0.599762-0.0999451,1.0995789-0.3998413,1.4494324-0.8496704c0.3498535-0.4997864,0.4998169-1.1995239,0.4998169-2.0991516
		V0.8996582H0v16.543396h2.3490295v-2.8988647c0.3998413,0.349884,0.7497253,0.6497498,1.0495911,0.8996582
		c0.7497253-1.0995789,1.4494324-2.2990723,2.0991516-3.548584l1.3494873,3.2487183l0.9496155-0.4498291
		c0.2499084,0.1499329,0.5498047,0.3498535,0.7996826,0.5497742c0.5997925-1.0495911,1.1995544-2.0991516,1.7492981-3.2486877
		l1.0995789,2.5489502l1.9491882-0.9496155l-1.8492432-4.0983582c0.7497253-1.6493225,1.3994751-3.2987061,1.9992065-5.0479736
		H13.5446167z M6.6973572,9.4962158c0.4497986-0.949646,0.8996277-1.9492188,1.299469-2.9988098l1.2495117,2.948822
		c-0.4498291,0.8996582-0.8496704,1.7992554-1.299469,2.6489258L6.6973572,9.4962158L6.6973572,9.4962158z M2.3490601,4.9979858
		C2.9988098,6.3474731,3.6985474,7.796875,4.3982544,9.3462524c-0.6497498,1.2994995-1.2994995,2.4989929-2.0491943,3.6485596
		V4.9980164V4.9979858z"/>
	<path fill="#E9573F" d="M6.6473694,23.6905212H5.6477661v5.6477356c0,0.5497742,0,0.8996277,0.0499573,1.1495361H5.6477661
		c-0.0499878-0.0499878-0.1499634-0.2499084-0.2998962-0.5497742l-3.9984131-6.2474976H0.0499573v8.1467285h1.0495911v-5.7477112
		c0-0.5497742,0-0.8996277-0.0499573-1.1495361h0.0499573c0.0499878,0.1499329,0.1499634,0.3498535,0.2499084,0.599762
		l4.0983887,6.2974854h1.1995239V23.6905212L6.6473694,23.6905212z"/>
	<polygon fill="#E9573F" points="12.9448547,24.6401367 12.9448547,23.6905212 8.746521,23.6905212 8.746521,31.8372498 
		13.1447754,31.8372498 13.1447754,30.8876038 9.7961121,30.8876038 9.7961121,28.1387024 12.6949463,28.1387024 
		12.6949463,27.2390747 9.7961121,27.2390747 9.7961121,24.6401062 12.9448547,24.6401062 	"/>
	<polygon fill="#E9573F" points="13.8444824,23.6905212 13.8444824,24.6401367 16.2435303,24.6401367 16.2435303,31.8372803 
		17.2931213,31.8372803 17.2931213,24.6401367 19.6421814,24.6401367 19.6421814,23.6905212 13.8444824,23.6905212 	"/>
</g>
</svg>
